<?xml version="1.0" encoding="utf-8"?>
<!-- Generator: Adobe Illustrator 16.0.0, SVG Export Plug-In . SVG Version: 6.00 Build 0)  -->
<!DOCTYPE svg PUBLIC "-//W3C//DTD SVG 1.1//EN" "http://www.w3.org/Graphics/SVG/1.1/DTD/svg11.dtd">
<svg version="1.1" id="레이어_1" xmlns="http://www.w3.org/2000/svg" xmlns:xlink="http://www.w3.org/1999/xlink" x="0px"
	 y="0px" width="595.28px" height="841.89px" viewBox="0 0 595.28 841.89" enable-background="new 0 0 595.28 841.89"
	 xml:space="preserve">
<path id="Geoje" fill="#EBF0F4" stroke="#CAD7E0" stroke-width="0.25" stroke-miterlimit="10" d="M194.341,236.16
	c-16.436-52.104-36.884-44.323-1.33-47.165c35.537-2.842,4.257-88.135,0-122.274c-4.268-34.105,26.979-59.674,26.979-59.674
	s-45.472-2.841-54.002,0l-5.688,56.849c0,0-31.252-14.225-34.117,8.536c-2.824,22.75-19.891,51.172-48.295,19.892
	c-28.464-31.241-11.395,56.872,11.352,90.982c22.764,34.099-5.655,34.099-28.421,11.366c-22.75-22.733-52.82,99.485-52.82,99.485
	c21.084,14.19,24.111,42.681,24.111,42.681c-54.274,17.016,0,34.1,0,34.1h31.547c0,0-53.999,22.767-20.687,31.28
	c33.346,8.524,12.15,31.246,12.15,31.246c-45.468,45.517,51.311,30.74,51.311,30.74l16.927-33.582
	c65.396,19.892-5.706-17.038,0-51.172c5.7-34.082,36.952,5.712,25.592-26.637c-11.372-32.264,45.403,46.483,45.403,3.848
	C194.341,314.054,207.122,276.767,194.341,236.16z"/>
</svg>
