<?xml version="1.0" encoding="utf-8"?>
<!-- Generator: Adobe Illustrator 16.0.0, SVG Export Plug-In . SVG Version: 6.00 Build 0)  -->
<!DOCTYPE svg PUBLIC "-//W3C//DTD SVG 1.1//EN" "http://www.w3.org/Graphics/SVG/1.1/DTD/svg11.dtd">
<svg version="1.1" id="레이어_1" xmlns="http://www.w3.org/2000/svg" xmlns:xlink="http://www.w3.org/1999/xlink" x="0px"
	 y="0px" width="595.28px" height="841.89px" viewBox="0 0 595.28 841.89" enable-background="new 0 0 595.28 841.89"
	 xml:space="preserve">
<g id="Jindo">
	<path fill="#EBF0F4" stroke="#CAD7E0" stroke-width="0.25" stroke-miterlimit="10" d="M192.022,246.891
		c6.41-18.342,29.044-22.548,34.309-21.518c5.265,1.072,43.188-21.633,43.179-23.998c0-2.332,41.539-7.325,43.15-33.502
		c0,0,18.995-18.881,8.193-42.549c0,0,13.797-14.322,13.797-27.699c0-13.344-27.06-48.015-33.574-48.645
		c-6.51-0.658-30.445,7.955-31.566-0.128c-0.286-2.042-3.91-44.353-37.504-44.753c-33.583-0.367-12.919,10.917-15.881,22.911
		c-2.951,11.975,24.885,10.215,23.073,26.096c-1.803,15.895-11.174,17.202-14.65,12.065c-3.472-5.126-48.034,4.75-59.976,30.083
		c-11.947,25.353-15.54,18.948-20.178,22.667c-4.626,3.729-67.863,45.85-57.977,65.884c9.869,19.987,27.777,42.646,27.248,55.808
		C113.119,252.757,185.613,265.232,192.022,246.891z"/>
	<path fill="#EBF0F4" stroke="#CAD7E0" stroke-width="0.25" stroke-miterlimit="10" d="M33.449,177.401
		c0,0,2.711-9.042,13.079-19.615c10.356-10.611-3.815-25.701-14.667-27.584c-10.831-1.87-8.771,22.877-8.771,22.877
		C21.069,171.645,33.449,177.401,33.449,177.401z"/>
	<path fill="#EBF0F4" stroke="#CAD7E0" stroke-width="0.25" stroke-miterlimit="10" d="M53.529,273.354
		c1.057-9.396-27.4,0.954-30.662-5.356c-3.267-6.323-19.358,12.014-19.358,12.014c-3.672,16.238,12.102,17.455,19.358,5.881
		C30.128,274.313,52.471,282.74,53.529,273.354z"/>
	<path fill="#EBF0F4" stroke="#CAD7E0" stroke-width="0.25" stroke-miterlimit="10" d="M46.483,293.57
		c-10.187-13.373-14.031,17.874-14.031,17.874c-5.439,18.557,10.53,28.186,29.618,14.465c19.09-13.663,35.675,8.446,29.618-9.462
		C85.64,298.539,56.67,306.947,46.483,293.57z"/>
	<path fill="#EBF0F4" stroke="#CAD7E0" stroke-width="0.25" stroke-miterlimit="10" d="M40.877,369.098
		c0,0,9.152,10.545-4.375,8.427c-13.527-2.103-0.205,15.79,9.982,13.706C56.67,389.1,68.259,336.449,40.877,369.098z"/>
</g>
</svg>
