<?xml version="1.0" encoding="utf-8"?>
<!-- Generator: Adobe Illustrator 16.0.0, SVG Export Plug-In . SVG Version: 6.00 Build 0)  -->
<!DOCTYPE svg PUBLIC "-//W3C//DTD SVG 1.1//EN" "http://www.w3.org/Graphics/SVG/1.1/DTD/svg11.dtd">
<svg version="1.1" id="레이어_1" xmlns="http://www.w3.org/2000/svg" xmlns:xlink="http://www.w3.org/1999/xlink" x="0px"
	 y="0px" width="595.28px" height="841.89px" viewBox="0 0 595.28 841.89" enable-background="new 0 0 595.28 841.89"
	 xml:space="preserve">
<g id="Tongyeong">
	<path fill="#EBF0F4" stroke="#CAD7E0" stroke-width="0.25" stroke-miterlimit="10" d="M80.83,46.561
		c-8.666,0-65.592,5.675-65.592,5.675s48.02,61.363,5.317,66.701c-42.673,5.296-2.653,26.639,29.108,45.364
		c31.802,18.666-63.117,45.582-3.096,84.322c20.671,13.316,48.014,69.352,50.046,69.352c2.038,0,60.001-97.633,60.001-97.633
		s-42.673-26.719-21.328-24.037c21.348,2.651,65.341-1.93,65.341-1.93s30.794-1.776,33.076-1.776s-7.573-14.82,4.757-24.266
		c12.282-9.456-22.01-56.072-23.354-70.707c-1.307-14.687-45.369-18.49-31.05-3.973c14.32,14.501-15.973-7.861-29.283,14.154
		c-13.344,22.004-24.826-12.858-24.826-12.858c0-82.728,28.666-74.429,28.666-74.429S153.558,11.277,136.993,1l-31.991,12.741
		C110.49,23.036,89.515,46.561,80.83,46.561z"/>
	<path fill="#EBF0F4" stroke="#CAD7E0" stroke-width="0.25" stroke-miterlimit="10" d="M253.682,307.345
		c11.573-8.874,7.152-25.614,2.411-21.956c-4.736,3.61-17.728-6.906-8.293-16.933c9.444-10.016-15.845-2.357-4.715-19.332
		c11.093-16.976-4.442-20.698-8.133-16.688c-3.696,3.983,6.592-7.824-18.41-27.349c0,0-13.327,16.026-4.666,40.692
		c8.66,24.676-10.037,29.369,4.666,52.019c14.714,22.655,14.714,19.717,14.714,26.005c0,6.341-34.132,32.67-33.075,54.707
		c1.039,22.004,22.201,19.839,23.642,7.253c1.407-12.603-12.789-28.783,1.279-33.748c14.101-4.96,21.099,4.079,27.045-2.858
		c5.936-6.944,17.188-10.763,19.471-6.037c2.288,4.735,4.187-4.512,4.187-4.512S242.146,316.257,253.682,307.345z"/>
</g>
</svg>
