<?xml version="1.0" encoding="utf-8"?>
<!-- Generator: Adobe Illustrator 16.0.0, SVG Export Plug-In . SVG Version: 6.00 Build 0)  -->
<!DOCTYPE svg PUBLIC "-//W3C//DTD SVG 1.1//EN" "http://www.w3.org/Graphics/SVG/1.1/DTD/svg11.dtd">
<svg version="1.1" id="레이어_1" xmlns="http://www.w3.org/2000/svg" xmlns:xlink="http://www.w3.org/1999/xlink" x="0px"
	 y="0px" width="595.28px" height="841.89px" viewBox="0 0 595.28 841.89" enable-background="new 0 0 595.28 841.89"
	 xml:space="preserve">
<g id="Wando">
	<path fill="#EBF0F4" stroke="#CAD7E0" stroke-width="0.25" stroke-miterlimit="10" d="M175.544,31.601
		c-4.524-1.774-30.406,8.674-37.399,4.788c-6.998-3.891-12.452,55.972,0,65.303c12.448,9.308,20.253,33.114,32.476,34.851
		c12.22,1.713,55.726,2.394,57.88,12.542c2.143,10.125,9.66,12.269,8.247-2.83c-1.398-15.119,3.927-16.653-7.338-29.12
		c-11.267-12.518-12.863-16.897-18.371-30.063C205.534,73.938,209.048,44.696,175.544,31.601z"/>
	<path fill="#EBF0F4" stroke="#CAD7E0" stroke-width="0.25" stroke-miterlimit="10" d="M340.103,212.791
		c-1.883,0.634-4.422-0.93-15.354-6.125c-10.936-5.205-23.815,29.574-23.815,29.574c-13.03,21.962,10.654,33.907,10.171,27.145
		c-0.483-6.797,5.084-5.985,11.378-1.517c6.294,4.459,11.982-2.681,18.244-1.126c6.271,1.576,10.34-25.67,2.723-29.373
		C335.85,227.665,341.984,212.157,340.103,212.791z"/>
	<path fill="#EBF0F4" stroke="#CAD7E0" stroke-width="0.25" stroke-miterlimit="10" d="M31.479,249.515
		c-13.992,3.126-18.657,13.25-24.879,33.446c-6.214,20.226,41.133,16.335,41.133,16.335s12.507-8.543,15.621-22.549
		c3.104-13.982,32.645-9.317,30.323-13.982c-2.34-4.665-25.656-8.565-32.649-9.341c-6.993-0.765,10.099-4.66,11.251-12.442
		c1.146-7.74,21.398-10.092,23.729-12.415c2.333-2.333,0-26.43-11.655-24.712c-11.659,1.713-14.775-7.167-26.435-16.235
		c-11.659-9.026-10.103,22.29-10.103,22.29c-6.214,7.759-6.214,17.864,0,32.889C54.02,257.804,45.466,246.449,31.479,249.515z"/>
	<path fill="#EBF0F4" stroke="#CAD7E0" stroke-width="0.25" stroke-miterlimit="10" d="M113.878,299.592
		c13.99,0.487,11.122,3.604,16.832,11.344c5.71,7.797,10.375-3.872,12.704-17.085c2.331-13.203,17.874-7.786,10.884-17.878
		c-6.991-10.101-27.207-21.788-14.769-26.458c12.434-4.633,21.229-11.632-8.814-19.404l-19.946,12.688c0,0,9.063,5.975,9.976,11.405
		C121.644,259.652,99.882,299.112,113.878,299.592z"/>
	<path fill="#EBF0F4" stroke="#CAD7E0" stroke-width="0.25" stroke-miterlimit="10" d="M326.866,81.105
		c-6.994-1.014-37.311-21.788-44.313-15.705c-6.993,6.125-3.374,18.756-7.772,19.066c0,0-24.879,0.647-27.984,9.772
		c-3.109,9.171,11.66,1.479,24.876,4.154c13.218,2.689,9.317,13.546,10.88,26.769c1.559,13.208,27.214-7.956,24.103-17.587
		c-3.112-9.618,17.314,12.396,15.648-3.267c-1.666-15.686,14.931-9.89,25.294-10.072C357.962,94.078,333.859,82.119,326.866,81.105z
		"/>
	<path fill="#EBF0F4" stroke="#CAD7E0" stroke-width="0.25" stroke-miterlimit="10" d="M263.121,6.715
		c-6.993-5.703-24.869,8.068-31.088,10.284c-6.229,2.225-15.55,21.765-15.55,21.765c-7.737,13.664,35.766-2.206,24.104,14.902
		c-11.659,17.094-0.779,30.312,5.796,17.034C252.955,57.477,277.118,57.542,278,49c0.892-8.561,13.104-21.009,12.326-10.232
		c-0.771,10.749,23.322,6.346,23.322,6.346s31.865-11.673,24.877-13.724c-6.999-2.047-10.105-15.818-19.432-8.772
		c-9.327,7.05-23.323,3.055-20.831-5.614C300.746,8.367,270.124,12.46,263.121,6.715z"/>
	<path fill="#EBF0F4" stroke="#CAD7E0" stroke-width="0.25" stroke-miterlimit="10" d="M409.264,84.47
		c-12.438-2.628-24.093,19.84-24.093,19.84c-6.219,24.994,22.544,7.627,38.099,0C438.801,96.636,421.702,87.08,409.264,84.47z"/>
	<path fill="#EBF0F4" stroke="#CAD7E0" stroke-width="0.25" stroke-miterlimit="10" d="M462.903,65.409
		c-11.659,4.013-0.779-7.087-10.101-18.747c-9.327-11.673-18.536,2.535-20.216,8.538c-6.989,24.896,17.104,17.123,16.319,18.264
		c-0.77,1.159,18.662,20.614,17.113,11.011c-1.558-9.631,35.747-8.285,33.429-18.235C497.106,56.308,474.563,61.424,462.903,65.409z
		"/>
</g>
</svg>
