<?xml version="1.0" encoding="utf-8"?>
<!-- Generator: Adobe Illustrator 16.0.0, SVG Export Plug-In . SVG Version: 6.00 Build 0)  -->
<!DOCTYPE svg PUBLIC "-//W3C//DTD SVG 1.1//EN" "http://www.w3.org/Graphics/SVG/1.1/DTD/svg11.dtd">
<svg version="1.1" id="Layer_1" xmlns="http://www.w3.org/2000/svg" xmlns:xlink="http://www.w3.org/1999/xlink" x="0px" y="0px"
	 width="663px" height="903px" viewBox="0 0 663 903" enable-background="new 0 0 663 903" xml:space="preserve">
<g id="Northkorea" display="none">
	<path id="Ryanggang" display="inline" fill="#ebf0f4" stroke="#cad7e0" stroke-width="0.25" stroke-miterlimit="10" d="
		M185.978,131.529c-1.5-0.166-1.5,2.167-2.833,2.834c-1.334,0.666-3.084,1.833-4.917,0c-1.833-1.834-0.417,8.833,1.5,9.166
		c1.917,0.334,4.416,2.917,3.25,5.084c-1.167,2.166,5.667,6.416,5.583,8.916c-0.083,2.5,4.916,0.417,3.916,2.417
		c-0.999,2-1.499,10.083,1.418,10.583c2.916,0.5,2.416,0.667,3.416,2.834c1,2.166,2.333,0.166,3.916,0.5
		c1.584,0.333,5.584,1.583,6.25-1.5c0.668-3.084,4.751-4.417,5.918-1.667c1.166,2.75,2.166,4.667,2.416,7.25s2,4.416,3.584,3.083
		c1.582-1.333,7.833-7.083,8.75-8.75c0.916-1.666,7.416-0.583,7.416,1.5c0,2.084-1.25,5.5-1.334,7
		c-0.082,1.5-1.083,2.501-2.75,3.667c-1.666,1.167-1.582,3.583-1.082,4.583c0.5,1-2.418,3.917-5.084,6.334
		c-2.666,2.416,1.25,3.916,0.5,5.666s0.084,5.584,1.584,5.167c1.5-0.417,1.666,5.333,3.666,6.083s2.416,1.417,2.416,3.917
		s-0.5,4.583,2.084,4.417c2.584-0.167,1.666,1.583,1.416,3.416c-0.25,1.834,0.084,3.751-1.5,5.417
		c-1.582,1.667-3.416,8.833,0.334,8.333s8.834-7.917,8.834-10s2.082-1.75,2.666-2.416c0.584-0.667,1.25-4.334,3.416-4.584
		c2.168-0.25,3.75-0.999,4.334-1.583c0.584-0.583,3.916,0.417,3.75,2s3.916,3.75,5.166,1.25s2.584-4.333,4.168-4.333
		c1.582,0,2.416-3.834,5.25-5c2.832-1.167,2.416-5.834,2.25-6.834c-0.168-1,0.582-1.5,1.416-2.166
		c0.834-0.667-0.168-2.917,1.416-3.5c1.584-0.584-0.332-3.583,0.668-4.917c1-1.333,2.832-4.917,1.582-6.333
		c-1.25-1.417,0.75-3.584,3-3.584s1-1.583,3.75-1.333s6.084-2,7-4.417c0.918-2.416,6.168-3.749,4.668-4.833
		c-1.5-1.083-1.834-5.417,1.5-6.083c3.332-0.667,2.5,2.083,4.666,1.166c2.166-0.916,6.396-2.75,6.778-1.25
		c0.349,1.351-0.963,4.928,5.156,4.412c0.049-0.193,0.207-0.408,0.512-0.662c1.656-1.375,0.22-5.5,1.095-8.25s3.375-4,0.875-6
		s-0.125-4.875-1.97-5.75c-1.844-0.875,0.095-2.375-0.655-6.75s3.125-1.625,2.625-4.625s0.5-3,3-6.125s-2.5-2.375-2.521-4.125
		s-0.604-2.25-4.062-3.125s-1.172-2.75-1.172-5.5s-3.75-1.875-2.25-4.875s-0.375-4.875,0.375-6.125s0.125-1.833-0.875-3.166
		s3.834-5,3.166-6.834c-0.666-1.833,3.834-7.333,4.668-8.166c0.508-0.509-0.41-3.991-1.203-6.633
		c-0.961,0.843-2.647,0.338-3.31-0.262c-0.918-0.833-1.668,1.167-1.584,2.75s-0.336,3.75-0.336,3.75s-6.75,1-7.83-0.75
		c-1.086-1.75-3.586,0.167-3.586,0.167s-1.164-3.584-3.25-1.084c-2.084,2.5-4.414,2.917-4.914,0.834
		c-0.5-2.084-5.004,2.416-6.42,2.5c-1.414,0.083-7.25,0.5-7.25-1.917l-23.33-0.333c0,0-5.336,2.583-4.25,4.083
		c1.08,1.5,3.58,3.25,3.664,5.25c0.086,2,0.5,12.167,0.5,12.167s3.082-0.084,2.916,2.916s2.834,8.584,6.75,8.417c0,0,1.42,2,1.67,3
		s1.996,0.583,1.83,2.083s1.334,0.667,0.92,2.167c-0.42,1.5-1.42,1.917-2,3.917c-0.586,2-4.336,5.294-4.646,7.355
		c-0.313,2.063-4.938,8.25-6.625,8.375s-0.5-1.813-3.125-1.813s-2.313-2.563-2.313-2.563s-1.25-0.375-1.75-0.188
		s-1.25-0.624-1.875-0.938c-0.625-0.313-3.438-1.313-3.375-2.5c0.063-1.187-1.125,3.375-3.125,1.625s-2.125,3.313-3.688,2.313
		s-9.313-1.813-11.813,0.126c-2.5,1.937-1.188-2-4.875-1.75s-1.188-4.376-3.625-3.876s-4.313,0.313-4.313-0.374
		c0-0.688-1.188,0.062-1.188,1.187s-3.188,1.563-3.5-0.563c-0.313-2.124-3.188-0.563-3.063,0.626
		c0.125,1.187-5.625-1.438-5.188-2.813s-1.438,0-1.438,0s-4-3.313-6.188-2.875s0.625-1-2.938-0.75s2.563-4.125,3.313-4.125
		s0-1.375-2.063-1.437c-2.063-0.063,0.04-2.5-2.354-2.126c-0.399,0.063-0.627,0.057-0.759,0.004
		C187.689,130.494,186.693,131.608,185.978,131.529z"/>
	<path id="Hamnam" display="inline" fill="#ebf0f4" stroke="#cad7e0" stroke-width="0.25" stroke-miterlimit="10" d="
		M322.602,216.154c0.75-2.875-4.75-6.125-4.845-8c-0.096-1.875,0.72-4.875-1.78-7.875s1.25-3.75,1.125-5.875s-0.625-5.875,1.5-6.375
		s-0.5-3.625,0.375-6.375s2.5-4,1.125-5.625c-1.121-1.325-3.072-1.736-2.854-2.588c-6.117,0.516-4.81-3.062-5.153-4.412
		c-0.39-1.5-4.613,0.334-6.779,1.25c-2.165,0.917-1.334-1.833-4.665-1.166c-3.335,0.666-3,5-1.5,6.083
		c1.5,1.084-3.75,2.417-4.669,4.833c-0.915,2.417-4.25,4.667-7,4.417s-1.5,1.333-3.75,1.333s-4.25,2.167-3,3.584
		c1.25,1.416-0.581,5-1.581,6.333c-1,1.334,0.915,4.333-0.669,4.917c-1.584,0.583-0.581,2.833-1.415,3.5
		c-0.835,0.666-1.585,1.166-1.416,2.166c0.166,1,0.582,5.667-2.25,6.834c-2.834,1.166-3.668,5-5.25,5
		c-1.584,0-2.918,1.833-4.168,4.333c-1.25,2.5-5.332,0.333-5.166-1.25c0.166-1.583-3.164-2.583-3.75-2
		c-0.584,0.584-2.164,1.333-4.334,1.583c-2.166,0.25-2.832,3.917-3.416,4.584c-0.584,0.666-2.664,0.333-2.664,2.416
		s-5.086,9.5-8.836,10s-1.916-6.666-0.334-8.333c1.584-1.666,1.25-3.583,1.5-5.417c0.25-1.833,1.168-3.583-1.416-3.416
		c-2.584,0.166-2.084-1.917-2.084-4.417s-0.416-3.167-2.416-3.917s-2.166-6.5-3.666-6.083c-1.5,0.417-2.334-3.417-1.584-5.167
		c0.75-1.75-3.166-3.25-0.5-5.666c2.666-2.417,5.584-5.334,5.084-6.334s-0.584-3.416,1.082-4.583
		c1.668-1.166,2.668-2.167,2.75-3.667c0.084-1.5,1.334-4.916,1.334-7c0-2.083-6.5-3.166-7.416-1.5
		c-0.916,1.667-7.168,7.417-8.75,8.75c-0.714,0.602-1.461,0.554-2.09,0.089c-2.132,2.686-6.294,7.875-6.91,8.245
		c-0.834,0.5-3,8.666,0,9.5c3,0.833,1.5,8.5-2.834,8s-5.666-3.167-6.834-1.334c-1.166,1.834-1.5,2-1.166,3s-1.078,5.001-0.123,6.667
		c0.957,1.667-3.377,5.834-4.543,4.5c-1.168-1.333-4.741-1.334-5.287,1.833c-0.547,3.167-1.879,3.334-3.713,1.834
		s-3.166,1.5-2.666,4.5s0.332,4.166-1.668,5c-2,0.833-2.332,3-2.332,4.833c0,1.154-0.858,1.518-1.662,2.126
		c2.069,1.363,6.349,3.999,8.328,3.874c2.666-0.166,6.166,3.668,4.5,7.168s2.166,5.666,3.332,6.666c1.168,1,1.668,5.166-1.666,5.166
		c-3.332,0-5.832,6.822-5.332,9.244c0.5,2.424,0.834,10.09,2.166,10.924c1.334,0.832-6.166,1.165-7,2.499
		c-0.834,1.333-5.666-3.999-9-3.999s-6.678,2.832-7.589,5.832s-3.077,7.666-1.411,8.333s0.442,3.835-0.61,5.167
		c-1.056,1.333,0.11,3.833-1.556,5.333c-1.668,1.5-2.666,3-1.834,5c0.834,2,4.834,4.335,4.334,6.667
		c-0.5,2.333-1.666,4.559-0.334,5.026c1.334,0.47-5.166,5.474-3.334,6.474c1.834,1,5-0.166,6.668,2c1.666,2.167,7.166,0,7.5,2
		c0.332,2,1,6.166,3.832,5.333c2.834-0.833,1.834-5.333,5.334-5.833s6.334-6.334,4.834-8.667s2.5-1.5,3.666,0.335
		c1.166,1.832,6-0.275,6.332-1.642c0.334-1.358,4.168-6.026,5.168-4.693c1,1.335,3.666,3.333,6,3
		c1.246-0.179,4.017-0.874,6.729-1.078c-0.274-1.827-0.17-3.557,0.841-4.521c2.875-2.75,2.75-4.626,2.375-7
		c-0.375-2.376-2.875-2-2.875-2c-5.25-4.876,2-9,2.5-10.375c0.5-1.374,1.625-3.5,3.75-4.374c2.125-0.876,5.875-4.626,7.5-3.876
		s3.75-0.624,3.75-0.624s0.375-4.876,2-2c1.625,2.874,4.875-2.5,5.25-3.25s-0.25-5.376,1.25-4.376s4.75-3.874,5.25-5.443
		c0.5-1.567,3-2.931,3.375-1.431s6,0.624,7.5,1.25c1.5,0.624,6.25-0.567,6.25-0.567s1.625-3.892,2.291-2.392
		c0.668,1.5,3.334,2.667,4.834,2.333c1.5-0.333,1.834-5.5,1.834-5.5s5.666,1,6.666-1.333s5.166-7,7.834-5.333
		c2.666,1.667,4.832-2,5.832-3.667s-2-3.667-2.332-6.167c-0.334-2.5,4.5-7.166,9.332-5c4.834,2.167,14.168-10.166,14.168-10.166
		l4.666-1.834c2.5,3.167,5-4.5,5-4.5c2.242,0,2.857-2.563,3.146-4.701C324.148,221.47,321.934,218.714,322.602,216.154z"/>
	<path id="Chagang" display="inline" fill="#ebf0f4" stroke="#cad7e0" stroke-width="0.25" stroke-miterlimit="10" d="
		M177.566,239.821c0.803-0.608,1.661-0.972,1.661-2.126c0-1.833,0.333-4,2.333-4.833c2-0.834,2.167-2,1.667-5s0.833-6,2.667-4.5
		c1.833,1.5,3.166,1.333,3.713-1.834c0.545-3.167,4.119-3.166,5.287-1.833c1.166,1.334,5.5-2.833,4.543-4.5
		c-0.955-1.666,0.457-5.667,0.123-6.667s0-1.166,1.166-3c1.167-1.833,2.5,0.834,6.834,1.334s5.834-7.167,2.834-8
		c-3-0.834-0.834-9,0-9.5c0.616-0.37,4.777-5.56,6.91-8.245c-0.766-0.566-1.355-1.754-1.494-3.172c-0.25-2.583-1.25-4.5-2.416-7.25
		c-1.167-2.75-5.25-1.417-5.918,1.667c-0.666,3.083-4.666,1.833-6.25,1.5c-1.583-0.334-2.916,1.666-3.916-0.5
		c-1-2.167-0.5-2.334-3.416-2.834c-2.917-0.5-2.417-8.583-1.418-10.583c1-2-3.999,0.083-3.916-2.417
		c0.084-2.5-6.75-6.75-5.583-8.916c1.166-2.167-1.333-4.75-3.25-5.084c-1.917-0.333-3.333-11-1.5-9.166
		c1.833,1.833,3.583,0.666,4.917,0c1.333-0.667,1.333-3,2.833-2.834c0.716,0.079,1.712-1.034,2.562-2.222
		c-0.658-0.258,1.228-1.754-1.947-2.691c-3.813-1.125-1.875-3,0-3.25s-0.125-1.625-0.5-1.875s-0.188-3.125-0.188-3.125l-2.875-0.25
		c0,0-0.563-2.875-4.063-2.875s0-0.438,0-1.125s-0.174-2.125-1.557-1.625c-1.381,0.5-4.818,2.313-5.443,5.125
		c-0.625,2.813-1.25,3.313-2.063,1.438c-0.813-1.874-1.5-1.813-1.5,1.75s-4.063-2.374-4.063-2.374s-4.563-1.063-3.5,1
		c1.063,2.062,2.438,2.624,1.563,3.5c-0.875,0.874-3.563,2.812-3.688,3.187s-3.375-2.813-3.938,0.813
		c-0.563,3.624-1.813,3.374-2.25,3c-0.438-0.376,0.375,2,1.063,3.687c0.688,1.688-2,3.563-2.063,5.188
		c-0.063,1.626-0.25,3.876-1.438,4.75c-1.188,0.876-2.063,2.876-1.125,5.688c0.938,2.813,1.813,4.313,1.063,4.438
		c-0.75,0.124-1.585,0.001-1-1.313c0.586-1.313-4.5,0.125-4.875,1.375s-1.125,2.188-1.438,2.063
		c-0.313-0.124-4.166,2.084-4.332,6.834c-0.168,4.75-13.25,14-13.25,14s-4.5,1.083-3.168,2.833c1.334,1.75,0.668,3.333,0.334,3
		s-2.25-0.083-1.416,1.833c0.832,1.917-1.918,1.5-1.918,1.5s0.5,1.75,0.334,2.167s-2.334,1.333-2.25,3s-3.252-0.25-3.084,0.75
		s3.252,4.417-1.582,3.667c0,0-3,2.333-4.334-1.667h-3.25c0,0-2.916,6.833-5.75,1.75c0,0-1.416,0-1.75,1.833h-3.084l-4.666,6.25
		c0,0,5.416,2.668,3,3.334s-6.166,0.666-6.5-1.084s-2.584,1.667-2.584,3.417c0,1.209-1.907,1.622-3.309,1.652
		c0.604,3.735,2.342,5.138,6.069,7.323c4.834,2.834,0.334,3,1.334,5.667c1,2.666-1.5,1.833-1,3.166s-0.5,3.667-1.166,5.167
		c-0.667,1.5,1.166,3.5,1.166,5.5s-1.334,2.167,1.334,3.667c2.667,1.5,3.5,3.666,5.5,5.166s4.832,0.668,6.832,3.168
		s0.168,3.166,6.668-1s7.832,5.832,10.332,7.332s5.168,6.668,5.668,8.5c0.5,1.834,12.166,4.168,14.666,5.834s4.5,2.5,7,0
		s6.834-0.166,6.834-2.834c0-2.666,1.666-4.5,3.666-4.5s2.5-2.666,3.5-4.332s2.167,3.5,3.667,0s6.5-2.834,6.5-2.834
		s1.167-7,4.833-7.5c3.667-0.5,2.167-5,2.834-7C176.642,240.621,177.094,240.18,177.566,239.821"/>
	<path id="Pyongbuk" display="inline" fill="#ebf0f4" stroke="#cad7e0" stroke-width="0.25" stroke-miterlimit="10" d="
		M91.894,302.529c2.833,0.166,9.167-5.663,9.167-7.5c0-1.834,1.334,0.5,3-2s3.167-1.834,4-2.5c0.833-0.663,5-7,9.166-4.5
		c4.167,2.5,8.5,3.007,12-0.578c3.5-3.586,6.334-1.585,8.001-2.92c1.666-1.332,2.667-2,2.333-4.332
		c-0.164-1.146,0.035-3.983,0.279-6.573c-0.73-0.281-1.479-0.728-2.279-1.261c-2.5-1.666-14.166-4-14.666-5.834
		c-0.5-1.832-3.168-7-5.668-8.5s-3.832-11.498-10.332-7.332s-4.668,3.5-6.668,1s-4.832-1.668-6.832-3.168s-2.833-3.666-5.5-5.166
		c-2.668-1.5-1.334-1.667-1.334-3.667s-1.833-4-1.166-5.5c0.666-1.5,1.666-3.834,1.166-5.167c-0.5-1.333,2-0.5,1-3.166
		c-1-2.667,3.5-2.833-1.334-5.667c-3.729-2.186-5.467-3.588-6.07-7.323c-0.625,0.014-1.15-0.05-1.355-0.152
		c-0.668-0.333-1.418,4.333-1.418,4.333s-3.25-0.083-3.082,2.5c0.166,2.584-1.5,0.084-2.168-0.583c-0.666-0.667-2.415,0.333-3,0.75
		c-0.582,0.417-2.75-2.5-4.166-0.5s-0.25,3.75-3.166,3.583c-2.918-0.166-15.418,8.167-15.084,9c0.334,0.834,3.832,3.251,1.5,3.334
		c-2.334,0.083-3.75-0.666-6.166,1.25c-2.418,1.916-1.668-5-3.168-1.75s-2.915,6.416-8.25,7.833
		c-5.332,1.417,0.25,5.084-5.582,6.667c-5.834,1.583-7.209,6.666-7.209,7.542c0,0.874-5.125,2.25-5.125,2.25
		s0.674,8.624-2.352,7.624c-3.026-1-5.898,2.25-5.648,4.876c0.25,2.624-2,11.374-2.625,11.5c-0.625,0.124,2.125,5.124,2.625,5.874
		s-0.125,3.25,2.125,3.126c2.25-0.126,8.75,0.874,8.875,1.75c0.125,0.874,3.375-2.75,2.625-0.876c-0.75,1.876-2,3.75-0.5,4.126
		c1.5,0.374,1.5,1.5,1,2.5c-0.5,1-0.125,1.875,2.375,4c2.5,2.124-0.875,7.874-0.25,7.75c0.625-0.126,3.375,0.374,5.25-2.75
		c0,0,1.25-0.626,1.75,0c0.5,0.624,0.875-2.376,0.875-2.376s0.125-0.25,0.625-0.25s-0.875-2.5,0.5-3s-0.5-3.75-1-4.375
		c-0.5-0.626-0.125-2.25,0.75-1s2,4,3,4.25s4.875-0.5,5.75,1.25s1.5,5.374,3.125,5.124s1.25-2.75,1.875-1.25s0.75,2.25,1.875,1.5
		s3.75,1.126,4.25,2.876s2.375,4.75,3.5,4.124c1.125-0.624,5-1.25,5.625-1.75s2.75-1.874,3-2.25c0.25-0.374-0.75,2.75,1.625,3.876
		c2.375,1.124,0.875,4.25,0.875,4.25s2.25,1.374,12.25-6.876c0,0,8.096-2.354,9.596-4.022
		C87.561,304.863,89.061,302.363,91.894,302.529z"/>
	<path id="Kangwon" display="inline" fill="#ebf0f4" stroke="#cad7e0" stroke-width="0.25" stroke-miterlimit="10" d="
		M273.841,389.429c0-3.376-6.125-4.5-8.125-3s-2.25-0.626-6-6.626s-8.75-2-12.125-7.624c-3.375-5.626-8.375-8.626-8.375-8.626
		c-4-13.624-6.75-11.5-6.75-11.5c-4,4.126-9.375-2.624-9.375-2.624s-5.375,1.5-6.251,0c-0.875-1.5-2.75-5.126-2.75-1.75
		c0,3.374-2.75-1.626-2.75-1.626c-11.125-7.624,2.75-13.124,2.375-14.75c-0.375-1.624-2.375-1-2.625-0.124
		c-0.25,0.874-3,0.5-2.875-1.376c0.125-1.874,3.125,0.5,3.75-0.874c0.625-1.376,3.104-0.75,3.104-0.75s0.146-1.626,2.396,0
		c1.784,1.288,0.663,5.788,0.247,7.039c0.521-0.72,2.504,0.211,2.504,0.211c0.5-1.626-1.25-8.376-1.25-8.376
		s-1.833-3.731-2.341-7.104c-2.715,0.208-5.483,0.899-6.729,1.079c-2.334,0.332-5-1.663-6-3c-1-1.334-4.834,3.337-5.168,4.692
		c-0.333,1.358-5.166,3.474-6.332,1.642c-1.167-1.834-5.167-2.665-3.667-0.334c1.5,2.332-1.333,8.166-4.833,8.666
		c-3.187,0.455-2.651,4.219-4.665,5.521c0.699,1.998,1.801,2.329,3.537,2.647c2.706,0.5,5.334,3.83,5.852,5.664
		c0.519,1.833-7.351-0.334-6.351,2c1,2.333-1.188,4.691,0.884,6.691c2.07,2,3.096,7,1.428,10.5c-1.666,3.5-2,2-4.5,3.167
		s-3.666,5.666-3,8.833s-0.666,2.5-3.332,3.333c-2.668,0.834-4,1.667-4.334,6c-0.334,4.334-5.166,1.667-7.133,3.167
		c-1.965,1.5,2.133,5.167,1.133,9.333c-1,4.167,3,8.667,2.5,15.334s4.5,4.166,5.666,3.5s5.168,2.666,3.5,4.577
		c-1.666,1.914-1.332,5.906-1.332,5.906s3.332,0.85,2.832,2.411c-0.313,0.979-1.1,4.938,0.369,7.55
		c3.166-1.532,3.148-0.854,3.519-3.944c0.022-0.196,0.044-0.393,0.063-0.581c0.021-0.211,0.045-0.42,0.067-0.627l0.001-0.002
		c0.021-0.191,0.047-0.386,0.074-0.573c0.002-0.009,0.003-0.021,0.005-0.021c0.028-0.188,0.062-0.375,0.101-0.563
		c0.002-0.011,0.004-0.021,0.006-0.031c0.041-0.188,0.086-0.378,0.143-0.564c0.003-0.01,0.006-0.021,0.009-0.023
		c0.058-0.192,0.121-0.393,0.196-0.588c0.003-0.005,0.006-0.014,0.008-0.019c0.477-1.229,1.388-2.56,3.259-4.205
		c0.002-0.001,0.002-0.001,0.004-0.003c0.31-0.271,0.646-0.559,1.013-0.85c0.006-0.006,0.013-0.011,0.019-0.016
		c0.362-0.29,0.757-0.592,1.179-0.898c0.008-0.007,0.018-0.013,0.024-0.019c0.425-0.313,0.881-0.636,1.37-0.969
		c0.006-0.004,0.012-0.009,0.018-0.017c0.725-0.489,1.521-1.013,2.398-1.56c0.285-0.181,0.576-0.357,0.88-0.542c0,0,2,1.167,3,0.583
		c1-0.583,3.666-2.75,6-1.583c2.333,1.167,7.666-0.416,8.75-0.833c1.083-0.417,7.333,4.084,10.083,1.75
		c2.75-2.335,2.917-1.777,2.917-1.777s13.917-1.896,14.583-0.06c0.667,1.837,2.416,2.668,5.333,0.503
		c2.918-2.166,12.084,2.75,13.918,1.25s14-7.666,14.918-13.75v-9.916l3.373-2.563C273.77,394.371,273.841,392.104,273.841,389.429z"
		/>
	<path id="Hwangnam" display="inline" fill="#ebf0f4" stroke="#cad7e0" stroke-width="0.25" stroke-miterlimit="10" d="
		M141.853,432.591c1.5-1.188,1.063-2.5-0.938-3.125c-2-0.625-4.75-1.875-5.938-3.75s-0.876-0.5-5.188-1.563
		c-4.313-1.063-6,2-7.625,3.25s-1.75,0.563-5.625-0.25c-3.875-0.813-7.438,3.75-9.25,3.625c-1.813-0.125-3.125-1.188-1.688-3.625
		c1.438-2.438-0.062-3-1.642-2.875s-0.483-1.313-1.545-1.003c-1.063,0.313-3.5,0.128-1.5-2.497s-1.313-1.688-2.563-1.688
		s-4.312-4.188-4.437-5.625s1.812-1.875,1.625-2.604c-0.188-0.729-3.313-3.771-3.063-5.333c0.25-1.563,1.188-0.125,1.688-0.813
		c0.5-0.688-0.25-3.625-1.313-4.938c-1.062-1.313,0.75-6.75,0.375-7.75s-7.638-3.477-7.638-3.477s-2.875,0.626-4,2.75
		c0,0-4.375-4-5.625-3.25s3.125,2.5-3.125,1.75c0,0-2.375,0.376-2.375,1.25c0,0.876-2.625-1-2.625,0.126
		c0,1.124-0.375,5.5-0.375,5.5s-1.803-3.75-2.213-4c-0.412-0.25-0.537-2.5-1.787-1.5s-1.875,3.624-4.375,0.624s-0.625,2-0.375,2.876
		c0.25,0.874-0.25,2.874-3.5-3c0,0-2,0.124-0.5,4.124l0.125,3c0,0,1.375,0.75,1.25,1.376c-0.125,0.624-4.25-1.376-4.75,1.5
		l-2.375-0.25l0.25-1.876c0,0-3.125-0.25-4-1s-0.125,1.25,0.5,2.5s0.5,3.376,0.5,3.376l1.375,1.124c0,0-1.125,3.75-1.875,3.876
		c-0.75,0.124-0.875,0.624-0.625,1.624s-0.25,1-0.875-0.874c-0.625-1.876-4.125,7.75-5.875,8.124c-1.75,0.376-2,2.75-0.125,4.126
		l-0.5,5.25c0,0,1.625,1.5,1.625,2.25s1.875,1.75,3.5-0.376c0,0,2.625-0.374,2.5,0.5c-0.125,0.876-2.625,1.5-2.625,1.5l-1.375,1.25
		c0,0-1-1.124-1.625-1.374s-2.25-0.5-2.125-2.126c0.125-1.624-3.125,2.376-3.375,3.25c-0.25,0.876-0.25,2.626-2.25,1.876
		s-1.125,0.374-3.125,1.75c-2,1.374,0,1.374-4.25,0.874s-0.875,2.25,0.375,2.75s5.875,1.626,6.75,1.75
		c0.875,0.126,2.875-1.124,4.125-1.25c1.25-0.124,2.875-1.874,2.875-1.874s7.125,4.374,7.75,4.874s1.875-0.75,2.5-0.25
		s2.75,0.626,4.125-0.25c1.375-0.874,1.25-1.25,2.625-1s2-0.874,3.25-0.124s3.125,0.5,3.875,0.75s3.25,0.75,0.625,1.75
		s-0.75,3-0.75,3s-1.25,2.374-1.75-0.376s-1.375-2-4.125-1.5s-4,1.126-3.625,2.376s1.5,2.5,2.25,2.25s-0.5,1.374,0.25,1.624
		s2.625-0.374,1.75,1c-0.875,1.377-1.625,0.127-2.75,0.127s-2.75-0.377-2.75-1c0-0.626-2.875-0.5-3.375,0.625
		c-0.5,1.127-2.5-0.123-2.875,0.75c-0.375,0.877-1.5,3.377,0.875,2.127c0,0-1.5,3.5,2.75,2.5s1.75,1.123,1.75,1.123
		s2.75,3,4.875,2.127c2.125-0.877,0.75,0.5,3.25,0.25s2.807-2.627,2.842-4.5c0.033-1.877,1.033-2.25,1.283-1.5s0,2.623-0.125,3
		c-0.125,0.373-1.625,4.373-2.625,4.123s-1.375,1.877-1.375,1.877l-3.625,2.373l1.375,1.127c0,0,2.5-1.25,2.625-2
		s3.125,0.623,3.125,0.623l3.188-1.5c0,0-0.816-1.75-0.563-2.123c0.252-0.377,0.951,1.295,2.002,0.873c2.5-1,0,2.5,1.576,2.5
		c1.578,0,1.369-4.123,1.369-4.123v-2.75c0,0,0.68,0.25,2.453,0.123c1.774-0.123-0.523,2.5,1.27,1.996
		c1.791-0.51,1.957-2.869,2.01-3.996c0.052-1.123-0.053-2.123,1.197-1.123s-1,3.123,0.25,2.75c1.25-0.377,1.375,1,0.832,1.373
		c-0.547,0.377-1.457,0.5,0,0.996c1.453,0.49,0,1.631,0,1.631s2.418-1.25,2.146,0.75s-3.229,1.623-3.604,1
		c-0.375-0.627-2.375,0.75-2.834,1.75s-0.791,0-1.268,0.992c-0.477,0.988,0.227,1.008-1.086,0.508c-1.311-0.5-0.063,0.5,0.385,1.672
		c0.449,1.173,3.053-2.549,3.861-0.922c0.813,1.623-1.895,1.373-1.895,1.373s-1.166,1.127-2.353,0.25
		c-1.187-0.873-1.313,1-2.063,1.127c-0.75,0.123-2,2.623-1.269,3.5c0.729,0.873,1.769,2.373,1.964,2
		c0.194-0.377,0.43-4.25,1.368-3.625s3.062-1.502,4.103-0.502c1.043,1,3.26,0.349,3.257-0.606c-0.003-0.957,1.431-2.595,1.431-2.595
		s0.646-5.672,0.896-2.18c0.25,3.488,1.938,2.18,1.938,2.18c0.311-2.952,2.063-0.799,2.063-0.799
		c-1.875,1.877,2.375,1.377,2.375,1.377s1.75-3.5,0.977-3.5s-2.352-1.5-0.852-1.438c1.5,0.063,1.75-1.313,1.375-1.063
		s-1.875-3.5-0.523-2.25s0.273-1.5,0.773-2.625s-0.773-1.75-0.773-1.75c-0.398-0.75,1.362-1.75,1.362-1.75
		c0.462,3.625,2.411,2.75,4.286,2.25s3.5-4.625,1.723-3s-2.973,0-2.848-0.75s1-0.875,2-0.875s1.25-1.875,0-1.25s-4.125,0.5-2.875,0
		s1.125-1.75,1.125-1.75l-3.875,1.75c0,0-5.75-5.125-6.244-6.125c-0.496-1,1.869,0,1.869,0s7.625,0.938,7.813,2.5
		c0.188,1.563,2.313,3.188,2.188,0.188s2.063-0.188,3.875,1.125c1.813,1.313,1.438,0.75,0.813,3.063s2.125-0.25,4.75,4.875
		s1.813,6.063,4.188,5.563s3.438,0.438,3.438,0.438s-1.438-5.688,0.688-4.563s1.813,2.313,2.375,2.75
		c0.562,0.437,1.375,1.438,1.688,0.125c0.313-1.313,1.375-3.563,1.375-0.188c0,3.373,0.354,4.75,1.957,5.438
		c1.604,0.688-0.207,3.875,2.354,4.125c2.562,0.25,3.688,0.313,2.813-2.563c-0.875-2.877-1.375-5.627,0.438-5.938
		s3.438,0.125,2.063-2s2.063,0.875,2.063,0.875s2.875,2.375,5.25-0.313s5.625-1.623,5.75-2.873s0.625-0.793,0.625-1.209
		c0-0.188,0.26-0.356,0.501-0.362c-0.018-1.814-2.118-3.57-1.613-4.078c0.625-0.625,0.5-1.875-0.832-3.5s1.207-2.625,0.582-3.75
		s2.125-2.125,0.125-3.125s0.875-3.813,0.875-3.813C138.414,437.139,140.353,433.779,141.853,432.591z"/>
	<path id="Pyongyang" display="inline" fill="#ebf0f4" stroke="#cad7e0" stroke-width="0.25" stroke-miterlimit="10" d="
		M86.881,366.911c0.777-0.764,3.172-0.639,3.85-0.889c0.678-0.25,2.678-3.5,7.49-2.75c0,0,2.375,4.764,3.938,3.257
		s4.75-1.313,6.375,0.72c1.625,2.024,3.313-1.16,3.313-1.535s2.159,0.75,2.455,0.438c0.295-0.313,2.606-2.313,1.731-4.063
		s-2.384-4.563-2.44-6c-0.058-1.438-2.371-2.188-2.371-2.188s4.938-6,9.813-2.75c4.131,2.757,3.237,3.817,2.98,5.358
		c0.871-0.563,4.134-2.579,4.781-1.604c0.75,1.125,2.625,3.003,2.75,3.502c0.125,0.498,1.927-0.752,3.214,0.998
		c1.286,1.75,3.887-0.34,5.022,0.83c0.898,0.925,3.127,3.26,4.646,2.893l-0.001-0.001c-0.286-0.22-0.496-0.454-0.604-0.678
		c-0.002-0.006-0.002-0.01-0.004-0.016c-0.033-0.067-0.057-0.142-0.068-0.204c-0.002-0.014,0-0.023,0-0.038
		c-0.008-0.059-0.012-0.112,0-0.168c0.004-0.024,0.021-0.051,0.027-0.073c0.016-0.039,0.024-0.078,0.049-0.114
		c0.037-0.055,0.088-0.104,0.149-0.151c0.005-0.003,0.007-0.007,0.011-0.014c0.07-0.053,0.155-0.103,0.26-0.143
		c0.211-0.084,0.301-0.232,0.297-0.438c-0.035-1.431-4.719-5.438-5.17-6.896c-0.518-1.671-1.316-3.666-4.816-4.166
		c-1.532-0.222-1.723-1.649-1.704-3.19c0.008-0.659,0.056-1.342,0.052-1.953c-0.009-1.229-0.22-2.188-1.341-2.188
		c-2.996,0-4.006-5.5-7.34-4.063c-2.5,1.082-3.125,0.387-3.14-0.729c-0.006-0.373,0.057-0.792,0.14-1.208
		c0.327-1.667-8.501-1.833-10.5,0.001c-2,1.829-7.666-3-8.332-4.835c-0.667-1.831-9,1-10.834,3.354
		c-0.345,0.438-0.465,1.016-0.435,1.67c0.136,2.842,3.131,7.214,3.269,8.978c0,0,0,0,0,0.001l0,0c0.167,2.169-1.334,2.669-4.5,3.835
		c-0.987,0.362-1.265,1.354-1.203,2.603c0.106,2.24,1.302,5.306,1.356,6.997c0.014,0.376-0.03,0.687-0.154,0.9
		c-1,1.752-4.561,3.978-4.561,3.978s-0.242,1.381-1.01,2.962C85.225,367.279,86.42,367.363,86.881,366.911z"/>
	<path id="Nampo" display="inline" fill="#ebf0f4" stroke="#cad7e0" stroke-width="0.25" stroke-miterlimit="10" d="
		M83.109,359.693c-0.084-1.417-1.166-0.75-1.723-2.553c-0.557-1.802-1.777-3.364-3.111-1.665c-1.332,1.7-5.832,0.968-6.713,1.665
		c-0.879,0.698,0.547,2.47,0,3.803c-0.342,0.84-4.941-0.486-8.324-1.598c-0.804,3.036-3.771,3.957-3.771,3.957
		s-0.875,1.376,0.375,1.876s-3,2.374-2.625,5.75c0.375,3.374-3.5,2.75-2.125,3.5s1.75,1.374,1,3.124s0.25,3.876,1.75,4.626
		s3.125,3.374,3.125,3.374s1.375-4.124,2.375-3.124c0.851,0.854-0.826,3.229-1.35,3.928c-0.092,0.122-0.15,0.196-0.15,0.196
		s3.07,1.126,3.41,1.626s3.84-0.376,5.215-0.876s6.625,0,4.5-3s2.875,0.626,2.875,1.376s7.375,1.5,7.75,2.874
		c0,0,3.387-1.396,2.762-4.021s-0.958-6.22-0.958-6.22s-1.417-1.865-1.5-3.035c-0.083-1.164-1.583-2.084-1.917-2.334
		c-0.333-0.25,0-2.166,0-2.166s-2.249,0.181-0.666-1.95c0.412-0.559,0.744-1.138,1.016-1.688c-0.018-0.003-0.035-0.005-0.052-0.007
		c0.017,0.002,0.034,0.004,0.052,0.007c0.768-1.581,1.01-2.963,1.01-2.963s0.981-0.614,2.061-1.45
		C85.754,361.949,83.164,360.637,83.109,359.693z"/>
	<path id="Pyongnam" display="inline" fill="#ebf0f4" stroke="#cad7e0" stroke-width="0.25" stroke-miterlimit="10" d="
		M193.727,257.529c-1.166-1-4.999-3.166-3.332-6.666c1.666-3.5-1.834-7.334-4.5-7.168c-1.98,0.125-6.259-2.511-8.328-3.874
		c-0.473,0.358-0.925,0.8-1.172,1.542c-0.667,2,0.833,6.5-2.834,7c-3.666,0.5-4.833,7.5-4.833,7.5s-5-0.668-6.5,2.832
		s-2.667-1.666-3.667,0c-1,1.668-1.5,4.334-3.5,4.334s-3.666,1.832-3.666,4.5c0,2.666-4.334,0.334-6.834,2.834
		c-1.699,1.699-3.169,1.855-4.721,1.26c-0.244,2.59-0.443,5.427-0.279,6.572c0.334,2.334-0.667,3-2.333,4.334
		c-1.667,1.334-4.501-0.666-8.001,2.919s-7.833,3.081-12,0.581c-4.166-2.5-8.333,3.834-9.166,4.5c-0.833,0.667-2.334,0-4,2.5
		s-3,0.167-3,2c0,1.834-6.334,7.667-9.167,7.5c-2.833-0.166-4.333,2.334-5.833,4c-1.5,1.667-9.596,4.021-9.596,4.021l0.875,1.75
		l1.875,0.126c0,0-2.875,0.374-4.625,1.374s-1.375,2.146-1.375,3.75c0,1.604-4.875,5.876-3.75,6.5c1.125,0.626,2.125,0,0.875,1.75
		s1.125,4.376,1.75,4.25c0.625-0.124,1.75,0.126,1.75,1.25c0,1.126,0.375,3.626,2.25,4c1.875,0.376-3.125,1.25-1.625,2.75
		s-1.75,1.876-1.75,1.876s0.5,3.624-1,2.874s-6.75,5.626-5.75,10.376c0,0-2,2.374-2.625,5.75c-0.027,0.146-0.064,0.277-0.103,0.417
		c3.384,1.104,7.981,2.438,8.323,1.598c0.548-1.333-0.879-3.104,0-3.803c0.882-0.697,5.38,0.035,6.714-1.665
		c1.334-1.699,2.556-0.14,3.11,1.665c0.555,1.803,1.64,1.136,1.724,2.553c0.056,0.943,2.646,2.261,4.284,3.027
		c0.975-0.756,2.025-1.688,2.5-2.521c0.99-1.737-3.167-9.333,0-10.5c3.166-1.166,4.667-1.666,4.5-3.833
		c-0.168-2.167-4.668-8.292-2.834-10.646c1.834-2.354,10.167-5.188,10.834-3.354c0.666,1.833,6.332,6.666,8.332,4.833
		s10.834-1.667,10.5,0c-0.332,1.667-0.333,3.382,3,1.938c3.334-1.438,4.343,4.063,7.339,4.063c2.995,0-0.505,6.834,2.995,7.334
		s4.3,2.499,4.814,4.166c0.52,1.667,6.563,6.667,4.875,7.334c-0.805,0.313-0.586,1.009,0.18,1.595
		c0.066-0.016,0.136-0.026,0.199-0.057c-0.063,0.022-0.133,0.039-0.199,0.057c0.021,0.021,0.041,0.035,0.063,0.056
		c0,0,4.047,1.663,4.483,0.288s-1.625-5.313,0.25-5.688s13.875,4.75,13.688,2.813c-0.188-1.938-1.813-4.438-2.125-4.875
		c-0.313-0.438-0.938-8.063-4.875-7.438c-3.938,0.625,1.858-5.625,3.68-4c1.82,1.625,6.508,1.563,7.508,1.375
		c1-0.188,10.813,10.188,12.938,9.813c0.742-0.132,1.838-0.283,2.945-0.433c-1.766-1.96,0.252-4.247-0.718-6.509
		c-1-2.334,6.866-0.167,6.351-2c-0.518-1.834-3.146-5.165-5.852-5.665c-1.736-0.321-2.838-0.651-3.537-2.647
		c-0.199,0.128-0.414,0.238-0.669,0.313c-2.833,0.833-3.5-3.333-3.833-5.333c-0.334-2-5.833,0.167-7.5-2
		c-1.667-2.166-4.833-1-6.667-2c-1.833-1,4.667-6,3.334-6.478c-1.333-0.476-0.167-2.689,0.333-5.022s-3.5-4.667-4.333-6.667
		s0.166-3.5,1.833-5c1.666-1.5,0.5-4,1.555-5.333c1.055-1.333,2.278-4.5,0.612-5.167c-1.667-0.667,0.5-5.333,1.411-8.333
		c0.91-3,4.255-5.834,7.589-5.834c3.333,0,8.166,5.334,9,4.001c0.833-1.334,8.333-1.667,7-2.501s-1.667-8.5-2.167-10.922
		s2-9.244,5.333-9.244C195.395,262.695,194.895,258.529,193.727,257.529z"/>
	<path id="Hambuk" display="inline" fill="#ebf0f4" stroke="#cad7e0" stroke-width="0.25" stroke-miterlimit="10" d="
		M396.443,76.565c-1.668-1.916-0.084-1.5,0-4.416c0.082-2.917,1.166-2.75,2.832-2.084s1.168,0.166,4-3.166
		c2.834-3.334,3.5-4.834,1.25-6.668c-2.25-1.833,4.168-2.416,6.584-3.166s2.084-4.834,3.5-6.416
		c0.902-1.009,0.388-4.512-0.106-6.928c-0.342-0.281-0.672-0.618-0.948-1.001c-1.584-2.167-5.084-6.75-6.168-7.167
		c-1.082-0.416-1.582-4-1.582-4s-2.918-1.916-3.584-2.416s-0.834-4.167,0.084-4.917c0.916-0.75,0.248-3-0.668-4s1.334-4.917,2-5.167
		l-0.332-3.083c0,0-6.084-2.083-8.168,0c-2.082,2.083-3.832-2.167-1.832-2.417s1.166-1.25,0.666-2s0.25-1.833,1.166-2
		c0.918-0.166-1.332-3.166-4.832,0c0,0-9.918,1.417-7.334-3.25c0,0-5.416-0.416-5.416,1.834s1.916,0.833,1.832,1.333
		c-0.082,0.5-4.082-0.083-3.832,1.333c0.25,1.417,1.495,3.417,0.832,3.417c-0.666,0-2.416,0.834-2.082,2.667
		c0.332,1.833-0.75,5.667-2.084,6.25c-1.337,0.583,0.5,4-0.166,4.75c-0.668,0.75-4.255,4.917-1.668,7.5
		c2.584,2.583,0.668,2,0.084,1.666c-0.584-0.333-1,1.334-0.5,1.917c0.5,0.583-0.666,0.917-0.75,1.917s2.166,2.334,0.416,3
		c-1.75,0.666-2.082,3.083-1.916,5.083s0.25,15.083-6.916,9.75c0,0-2.668-2.333-3.5-0.667c0,0,1.998-0.166,0.582,2.25
		c-1.416,2.417-3.166,1.584-2.832,3.667c0.332,2.083-1.25,0.417-2.25-1.667c-1-2.083-4.418-3.833-4.418-3.833s-2.332,0.75-2.666-0.5
		s-1.75-0.75-1.666,0.583c0.082,1.334-0.75,1.917-1.084,0.167s-2.25-1.333-2.084,0.417c0.168,1.75,0.084,3.167-0.666,1.5
		c-0.75-1.667-2.418,1.084-2.084,2.5c0.334,1.416-2.082,0.333-2.082,0.333s-0.252,0.5-0.418,1s-3.582-0.419-1.916,2.581
		s-0.334,3.334-1.166,2.834c-0.833-0.5-1.25,0.249-0.418,1.666c0.834,1.417,0,1.417-0.582,1.334
		c-0.584-0.084,1.748,1.417,1.082,1.833c-0.666,0.417-3.416,0.333-2.666,1.75s2.75,3.833,2,3.917
		c-0.75,0.083-1.916-0.334-1.582,1.166s-2.25-0.833-2.166,1.334c0.084,2.166-1.916,1.5-2.25,1.25s-0.416,1.75-0.416,1.75
		s-2.5,0.582-3.084-0.834s-0.916,1.667-0.916,1.667s-1.834-0.584-2,2.333c-0.047,0.82-0.313,1.35-0.688,1.679
		c0.793,2.642,1.711,6.124,1.203,6.633c-0.834,0.833-5.334,6.333-4.668,8.166c0.668,1.834-4.166,5.501-3.166,6.834
		s1.625,1.916,0.875,3.166s1.125,3.125-0.375,6.125s2.25,2.125,2.25,4.875s-2.281,4.625,1.172,5.5s4.037,1.375,4.06,3.125
		s5.021,1,2.521,4.125s-3.5,3.125-3,6.125s-3.375,0.25-2.625,4.625s-1.188,5.875,0.652,6.75c1.848,0.875-0.527,3.75,1.973,5.75
		s0,3.25-0.875,6s0.563,6.875-1.098,8.25c-1.654,1.375,0.973,1.625,2.348,3.25s-0.25,2.875-1.125,5.625s1.75,5.875-0.375,6.375
		s-1.625,4.25-1.5,6.375s-3.625,2.875-1.125,5.875s1.688,6,1.777,7.875c0.096,1.875,5.598,5.125,4.848,8
		c-0.668,2.561,1.547,5.316,6.01,6.948c0.229-1.677,0.248-3.091,0.688-2.799c1,0.667,2.5-5,2.5-5c4-8.5,5.667,2.376,6.917-1.75
		c1.25-4.124,6.875-7,9.75-8.75s4.875-0.75,5.625-1.374c0.75-0.626,0.875-4.376,4.125-3.478c3.25,0.896,4.125-0.522,4.125-0.522
		s3.375,2.374,5.25-3c1.875-5.376,2.875-5.626,0.125-6.876s0.25-15.124-0.875-18.75c-1.125-3.624,1-5.124,0.625-7
		c-0.375-1.874,1.5-5.624,1.5-5.624c4.125-1.876,2.5-7.126,2.5-7.126s-1,1.626-1.75-0.624s-3.5-3-3.5-3
		c-5.75-2.876-5.375-12.626-3.875-12.626s1.5-9.624,4.25-10c2.75-0.374,1.875-7.624,2.625-7.374s2.875-2.25,2.875-2.25l3.125,2.25
		v-3.75c2.25-0.876,2.625-6,2.625-9.5s4.25,0,4.25,0s1.125-6.376,2-7.126s1.125-0.124,1.375-2.124s2.25,0.124,2.375-1.876
		s1.25-3.25,1.25-3.25c1.125,2,1.5,0.876,1.5-1.323c0-2.198,1.875-2.927,2.875-1.177s3.5,1.376,2.75,0c-0.75-1.374,0-2.25,0-2.25
		c1.933-0.101,2.779-1.531,3.306-3.468C395.665,78.836,397.986,78.34,396.443,76.565z"/>
	<path id="Rason" display="inline" fill="#ebf0f4" stroke="#cad7e0" stroke-width="0.25" stroke-miterlimit="10" d="
		M430.863,67.637c-1.935-1.166-0.896-3.334-0.063-6.667c0.832-3.333-6.5-5.5-6.5-5.5s-1.752-3.083,0.332-3.833
		c0,0-3-6.084-3.5-6.334s-0.332-6.666-0.332-6.666s-6.335-0.583-4.419,3.25c1.58,3.156-0.288,3.146-1.881,1.834
		c0.494,2.416,1.014,5.919,0.104,6.928c-1.416,1.582-1.084,5.666-3.5,6.416s-8.834,1.333-6.584,3.166
		c2.25,1.834,1.584,3.334-1.25,6.668c-2.832,3.332-2.334,3.832-4,3.166s-2.748-0.833-2.83,2.084c-0.084,2.916-1.668,2.5,0,4.416
		c1.541,1.775-0.777,2.271,3.072,5.021c0.116-0.448,0.229-0.913,0.319-1.406c0.5-2.626,5-5.376,5.875-6.876s1.375,4,1.375,4
		l1.75-2.5c1.5,0,0.5-4,1.875-3s1.416-1.833,1.416-1.833c-1.332-3.167,1.668-4.333,1.668-4.333s3.666,3.833,3.332,0
		c-0.332-3.833,3.671,0.333,3.334-0.5c-0.334-0.833,0.503-3.834,2.337-4.167c1.832-0.333-2.337,4.167,0,4.833
		c2.332,0.667,3.5,4.167,3.5,4.167S432.8,68.803,430.863,67.637z"/>
	<path id="Kaesong" display="inline" fill="#ebf0f4" stroke="#cad7e0" stroke-width="0.25" stroke-miterlimit="10" d="
		M156.347,432.471c4.583,7.413-5.083,3.829-5.083,3.829c-4.059,9.383-8.795,10.181-10.832,10.021
		c-0.184,0.925-1.775,1.847-0.661,3.207c1.333,1.625,1.458,2.875,0.833,3.5c-0.505,0.506,1.598,2.262,1.613,4.075
		c0.303-0.004,0.574,0.271,0.248,1.195c0,0,0.168,3.25,1.584,4.668c1.416,1.416,9.084,5.916,9.084,5.916s3.666-1.334,4.416-2.084
		s1.084-3.832,2.334-4.5c0.102-0.057,0.214-0.104,0.324-0.154c0.137-1.938,0.453-7.25-0.056-8.469c0,0,8.313-2.126,12.063-7.25
		c3.75-5.126-1.25-4.376,3.334-6.876c0.525-0.287,0.986-0.521,1.398-0.722c-1.471-2.606-0.683-6.57-0.369-7.55
		c0.305-0.952-0.812-1.64-1.729-2.028C165.699,434.784,162.74,426.863,156.347,432.471z"/>
	<path id="Hwangbuk" display="inline" fill="#ebf0f4" stroke="#cad7e0" stroke-width="0.25" stroke-miterlimit="10" d="
		M183.345,355.432c-0.063-0.07-0.128-0.146-0.194-0.212c-0.063-0.063-0.109-0.122-0.164-0.187c-1.107,0.146-2.203,0.299-2.945,0.433
		c-2.125,0.375-11.938-10-12.938-9.813s-5.688,0.25-7.508-1.375c-1.82-1.625-7.617,4.625-3.682,4c3.938-0.625,4.563,7,4.875,7.438
		c0.313,0.438,1.938,2.938,2.125,4.875c0.188,1.938-11.813-3.188-13.688-2.813s0.188,4.313-0.25,5.688s-4.484-0.288-4.484-0.288
		c-0.021-0.02-0.041-0.034-0.062-0.054c-1.519,0.367-3.747-1.968-4.646-2.893c-1.138-1.171-3.736,0.92-5.023-0.83
		c-1.287-1.75-3.09-0.5-3.215-0.998c-0.125-0.499-2-2.377-2.75-3.502c-0.646-0.977-3.909,1.04-4.78,1.604
		c0.256-1.541,1.149-2.604-2.981-5.358c-4.875-3.25-9.813,2.75-9.813,2.75s2.313,0.75,2.371,2.188c0.058,1.438,1.564,4.25,2.439,6
		s-1.437,3.751-1.73,4.063c-0.295,0.313-2.455-0.813-2.455-0.438s-1.688,3.563-3.313,1.535c-1.625-2.026-4.813-2.228-6.375-0.72
		c-1.563,1.507-3.938-3.258-3.938-3.258c-4.813-0.75-6.813,2.5-7.49,2.75c-0.677,0.25-3.071,0.125-3.851,0.89
		c-0.461,0.45-1.655,0.366-2.557,0.227c-0.27,0.557-0.603,1.136-1.014,1.688c-1.583,2.131,0.666,1.95,0.666,1.95
		s-0.333,1.916,0,2.166c0.334,0.25,1.834,1.166,1.917,2.334s1.5,3.034,1.5,3.034s0.333,3.594,0.958,6.219s-2.762,4.021-2.762,4.021
		s7.262,2.479,7.637,3.479s-1.438,6.438-0.375,7.75c1.063,1.312,1.813,4.25,1.313,4.938c-0.5,0.688-1.438-0.75-1.688,0.813
		c-0.25,1.563,2.875,4.604,3.063,5.334c0.188,0.729-1.75,1.166-1.625,2.604c0.125,1.438,3.188,5.625,4.438,5.625
		s4.563-0.938,2.563,1.688s0.438,2.809,1.5,2.496c1.063-0.313-0.035,1.129,1.545,1.004s3.08,0.438,1.643,2.875
		c-1.438,2.438-0.125,3.5,1.688,3.625s5.375-4.438,9.25-3.625c3.875,0.813,4,1.5,5.625,0.25s3.313-4.313,7.625-3.25
		c4.313,1.063,4-0.313,5.188,1.563c1.188,1.875,3.938,3.125,5.938,3.75s2.438,1.938,0.938,3.125c-1.5,1.188-3.438,4.548-0.5,6.24
		c0,0-2.875,2.815-0.875,3.815s-0.75,2-0.125,3.125c0.102,0.187,0.114,0.363,0.078,0.543c2.036,0.156,6.773-0.641,10.832-10.021
		c0,0,9.667,3.582,5.083-3.827c6.396-5.608,9.353,2.313,18.502-3.216c-0.591-0.251-1.103-0.383-1.103-0.383
		s-0.033-0.401-0.026-1.021c0.017-1.313,0.222-3.585,1.358-4.894c1.668-1.913-2.334-5.244-3.5-4.579
		c-1.166,0.666-6.166,3.167-5.666-3.5s-3.5-11.167-2.5-15.334c1-4.166-3.099-7.834-1.133-9.334c1.967-1.5,6.799,1.168,7.133-3.166
		s1.666-5.165,4.334-6c2.666-0.834,3.998-0.165,3.332-3.334c-0.666-3.167,0.5-7.665,3-8.832c2.5-1.168,2.834,0.332,4.5-3.168
		C186.193,362.333,185.283,357.55,183.345,355.432z"/>
</g>
</svg>
